<svg width="228" height="204" viewBox="0 0 228 204" fill="none" xmlns="http://www.w3.org/2000/svg">
<g id="ph2 1" clip-path="url(#clip0_207_1929)">
<g id="Capa 2">
<g id="OBJECTS">
<path id="Vector" d="M228 102.697C228 104.938 227.934 107.135 227.803 109.333C227.771 109.956 227.737 110.568 227.688 111.192C227.123 118.996 225.744 126.72 223.574 134.236C223.584 134.248 223.574 134.258 223.563 134.27C223.465 134.641 223.355 135.002 223.246 135.362C223.05 136.041 222.843 136.707 222.614 137.396C222.609 137.441 222.598 137.486 222.58 137.528C222.417 138.03 222.242 138.555 222.056 139.091C221.325 141.299 220.507 143.485 219.623 145.65C194.729 206.303 121.99 233.601 63.5037 203.996C59.7481 202.092 56.0959 199.99 52.5626 197.699C47.884 194.649 43.4305 191.265 39.2364 187.575C31.6816 180.944 25.0462 173.33 19.5068 164.936C19.3916 164.761 19.266 164.575 19.1463 164.389C18.7317 163.733 18.317 163.089 17.9128 162.428C17.7976 162.253 17.6733 162.056 17.5673 161.859C17.5185 161.793 17.4746 161.723 17.436 161.651C17.011 160.952 16.5964 160.241 16.1922 159.541C16.077 159.345 15.9618 159.148 15.8536 158.964C15.4505 158.243 15.0578 157.543 14.665 156.822C14.6288 156.743 14.5885 156.666 14.5441 156.591C14.1986 155.957 13.8462 155.29 13.5191 154.63C13.3118 154.258 13.1149 153.853 12.9294 153.476C12.6024 152.831 12.2856 152.164 11.9689 151.515C10.8664 149.197 9.84405 146.839 8.90196 144.442C8.77067 144.103 8.62901 143.765 8.50924 143.425C7.62474 141.151 6.82431 138.844 6.10795 136.503C5.48604 134.514 4.92977 132.492 4.41612 130.468C-2.37489 103.327 1.03174 74.6318 13.9878 49.8427C14.8942 48.1122 15.8305 46.4324 16.8256 44.7596C31.5819 19.8133 55.2881 1.45052 83.1032 -6.57894C83.3105 -6.6447 83.5294 -6.71046 83.7367 -6.77622C83.794 -6.78425 83.8494 -6.80262 83.9002 -6.83044H83.9117C86.2151 -7.46496 88.5431 -8.03719 90.8956 -8.54711C91.8561 -8.75477 92.8535 -8.95205 93.8209 -9.11587H93.8646C94.4969 -9.24624 95.1315 -9.35584 95.7741 -9.45505C96.2982 -9.55311 96.7888 -9.62926 97.3128 -9.71694H97.3347C103.016 -10.5715 108.753 -11.0003 114.498 -10.9998C134.098 -11.0346 153.368 -5.95176 170.408 3.7476C171.227 4.20907 172.046 4.67054 172.853 5.16893C178.303 8.44217 183.466 12.1727 188.286 16.3204C188.396 16.3943 188.499 16.4785 188.593 16.5719C189.039 16.9433 189.476 17.3367 189.902 17.7198C200.728 27.3634 209.618 38.9881 216.094 51.9701C222.095 63.9802 225.903 76.9685 227.34 90.3217C227.781 94.432 228.001 98.5631 228 102.697Z" fill="white"/>
<g id="Group 24">
<path id="Vector_2" d="M104.915 145.295L77.0666 25.566C76.8763 24.7483 76.3823 24.0331 75.6844 23.5646C74.9865 23.0961 74.1365 22.9091 73.3059 23.0415L3.36615 34.6145C0.657963 35.6509 0.809445 38.2466 1.2498 40.1189L30.5774 164.068C30.9975 165.857 33.3323 166.273 35.1228 165.845L102.447 149.269C103.301 149.066 104.039 148.534 104.501 147.79C104.964 147.045 105.112 146.148 104.915 145.295Z" fill="#C0CFE6"/>
<path id="Vector_3" d="M107.914 145.555L80.1876 25.5721C79.9983 24.7519 79.506 24.0344 78.8103 23.5648C78.1147 23.0952 77.2674 22.9084 76.4399 23.0422L6.78361 34.2926C6.33512 34.3651 5.9063 34.5296 5.52383 34.7758C5.14136 35.022 4.81345 35.3446 4.5605 35.7237C4.30756 36.1027 4.13501 36.53 4.05359 36.9789C3.97217 37.4278 3.98363 37.8888 4.08725 38.3331L33.2886 163.435C33.388 163.861 33.5702 164.263 33.8247 164.618C34.0792 164.973 34.4011 165.275 34.7718 165.505C35.1425 165.734 35.5547 165.888 35.9849 165.958C36.415 166.027 36.8546 166.011 37.2783 165.909L105.461 149.539C106.311 149.335 107.046 148.802 107.505 148.055C107.965 147.309 108.112 146.41 107.914 145.555Z" fill="#4A5C43"/>
<path id="Vector_4" d="M104.922 140.413L79.595 31.3384C79.4216 30.5928 78.9718 29.9408 78.3363 29.5139C77.7008 29.0869 76.9269 28.9169 76.1709 29.0382L12.5416 39.2635C12.1323 39.3295 11.7409 39.479 11.3918 39.7026C11.0427 39.9263 10.7433 40.2194 10.5124 40.5637C10.2814 40.908 10.1238 41.2961 10.0492 41.7039C9.9747 42.1117 9.98488 42.5304 10.0791 42.9341L36.7547 156.668C36.8455 157.055 37.012 157.421 37.2446 157.744C37.4772 158.067 37.7712 158.341 38.1099 158.55C38.4486 158.759 38.8252 158.899 39.2182 158.962C39.6112 159.025 40.0128 159.01 40.3999 158.917L102.68 144.036C103.457 143.85 104.128 143.365 104.548 142.686C104.968 142.007 105.102 141.19 104.922 140.413Z" fill="#C0CFE6"/>
<path id="Vector_5" d="M63 28L61.7133 33.4866C61.5002 34.3948 61.0309 35.2174 60.3647 35.8504C59.6984 36.4835 58.8652 36.8985 57.9704 37.0432L33.825 40.943C33.046 41.069 32.2486 40.9852 31.5101 40.6998C30.7717 40.4144 30.1173 39.937 29.6103 39.3139L25 33.6497L63 28Z" fill="#97AF8F"/>
<path id="Vector_6" d="M53.9228 33.045L53.9824 33.3666C54.0419 33.6886 53.9492 34.0175 53.7245 34.2814C53.4997 34.5454 53.1613 34.7229 52.783 34.7752L36.6806 36.9842C36.3176 37.0341 35.946 36.9648 35.6408 36.7904C35.3357 36.6159 35.12 36.3493 35.0374 36.0446C34.9932 35.8826 34.9881 35.7146 35.0224 35.5508C35.0566 35.387 35.1295 35.2309 35.2367 35.0917C35.3439 34.9526 35.4831 34.8333 35.6459 34.7412C35.8088 34.649 35.9919 34.5859 36.1842 34.5556L52.2271 32.0206C52.4179 31.9906 52.6138 31.9934 52.8032 32.029C52.9926 32.0646 53.1717 32.1321 53.3299 32.2277C53.488 32.3232 53.622 32.4448 53.7239 32.5852C53.8257 32.7256 53.8934 32.882 53.9228 33.045Z" stroke="#FFE8EF" stroke-width="0.703" stroke-miterlimit="10"/>
<path id="Vector_7" d="M68.1866 123.372L67.8982 123.473L67.9077 123.679C67.9511 124.347 67.7416 125.008 67.3202 125.531C66.8988 126.055 66.2956 126.404 65.6284 126.51L62.7429 126.965C62.2082 127.051 61.6599 126.976 61.1688 126.75C60.6778 126.523 60.2666 126.156 59.9886 125.695C59.9336 125.611 59.8848 125.524 59.8426 125.433L59.4972 124.676C58.904 124.697 58.3206 124.523 57.838 124.18C57.695 124.08 57.563 123.966 57.4442 123.838C57.1099 123.492 56.8747 123.064 56.7628 122.598L56.4933 121.449L56.3957 121.034L56.2005 120.197L56.0951 119.769L55.8481 118.707L55.7505 118.284L55 115.118L67.6961 111L68.615 114.774L68.7126 115.189L69.0745 116.667L69.1721 117.081L69.5633 118.707L69.6696 119.122L69.9174 120.149L69.9252 120.192C69.9545 120.32 69.9755 120.449 69.9883 120.58C70.0445 121.177 69.8978 121.777 69.5714 122.282C69.2451 122.788 68.7577 123.171 68.1866 123.372Z" fill="#FFE8EF"/>
<path id="Vector_8" d="M60 124.973L69 124L60.3936 126L60 124.973Z" fill="#1E1D38"/>
<path id="Vector_9" d="M73.6223 92.1922C71.6388 95.0884 70.6353 98.5478 70.7601 102.06L70.9271 109.594C70.9525 110.504 70.6571 111.395 70.0931 112.109C69.5291 112.823 68.7324 113.314 67.843 113.497L63.1475 114.484L62.6745 114.582L60.7855 114.977L60.3135 115.075L56.2853 115.917C55.3949 116.104 54.4672 115.972 53.6644 115.542C52.8616 115.112 52.2346 114.414 51.893 113.567L49.4179 107.407C48.0544 103.948 45.5798 101.044 42.3861 99.1564C38.7415 97.1344 35.684 94.1952 33.5142 90.6279C31.3444 87.0606 30.1371 82.9879 30.011 78.8103C29.8849 74.6328 30.8443 70.4942 32.7949 66.8015C34.7454 63.1089 37.62 59.9893 41.136 57.7496C44.6519 55.5099 48.6881 54.2272 52.8478 54.0275C57.0074 53.8278 61.1472 54.7182 64.86 56.6109C68.5729 58.5036 71.731 61.3336 74.0238 64.8226C76.3166 68.3115 77.6652 72.3393 77.9369 76.5099C78.3385 82.0798 76.8147 87.6183 73.6223 92.1922Z" fill="#EACBD1"/>
<path id="Vector_10" d="M67.9259 86.5646C67.7145 84.5673 66.7496 82.4469 65.0472 82.2279C64.5337 82.1721 64.0144 82.2506 63.5404 82.4557C63.0456 82.6418 62.5773 82.8918 62.1473 83.1992C61.6537 80.8239 60.5537 78.6163 58.954 76.7905C58.1204 75.7824 56.925 75.1399 55.6233 75H55.6057C54.8349 75.0268 54.0832 75.2461 53.4193 75.6379C52.7554 76.0297 52.2005 76.5815 51.8052 77.2427C50.9262 78.6252 50.3591 80.1822 50.1434 81.8055C49.8195 83.773 49.7543 85.7742 49.9495 87.7585C49.6216 87.5707 49.2796 87.4086 48.9265 87.2737C47.5704 86.7238 45.831 86.803 45.2063 88.2503C44.9174 89.0652 44.9324 89.9567 45.2486 90.7614C46.2043 93.4505 47.8832 95.8249 50.1011 97.6241C50.7082 98.1564 51.3347 98.6799 51.9409 99.1867C53.4307 100.348 54.8103 101.644 56.0621 103.058C59.073 106.651 60.3595 111.363 60.8917 115L61.3622 114.902C60.8062 111.207 59.5039 106.429 56.4339 102.754C55.1599 101.318 53.7578 100.002 52.2449 98.8198C51.6458 98.3227 51.0113 97.7983 50.413 97.2669C48.2657 95.5248 46.6369 93.2291 45.7032 90.6285C45.4305 89.926 45.4084 89.1511 45.6407 88.4342C46.1394 87.2808 47.6048 87.2535 48.752 87.7172C49.1894 87.892 49.6122 88.1012 50.0165 88.3427C50.3296 90.8718 51.0967 93.3238 52.2811 95.5811C52.474 96.0757 52.8537 96.4747 53.3384 96.6924C53.4846 96.7328 53.6378 96.7415 53.7876 96.718C53.9375 96.6944 54.0805 96.6392 54.2073 96.556C54.4173 96.4154 54.5967 96.2338 54.7345 96.0221C54.8723 95.8104 54.9657 95.573 55.0091 95.3242C55.0996 94.5514 54.9614 93.769 54.6117 93.0736C53.7626 91.0271 52.3205 89.2807 50.4703 88.0585C50.2245 86.0037 50.2749 83.9243 50.6201 81.8838C50.8221 80.3297 51.3593 78.8378 52.1947 77.511C52.5508 76.9201 53.0468 76.4254 53.639 76.0704C54.2313 75.7154 54.9017 75.511 55.5916 75.4751H55.6092C56.7817 75.6267 57.8535 76.2154 58.6095 77.123C60.1985 78.942 61.276 81.1491 61.7323 83.5195C60.5781 84.5565 59.7108 85.8729 59.2138 87.3418C58.7169 88.8106 58.6071 90.3825 58.895 91.9061C59.0083 92.6268 59.385 93.28 59.9524 93.7396C60.0761 93.818 60.2152 93.8691 60.3604 93.8894C60.5055 93.9098 60.6533 93.8989 60.7939 93.8575C61.1359 93.7296 61.4304 93.5003 61.638 93.2003C62.7104 91.8031 63.0646 89.7645 62.7571 86.7775C62.6528 85.7477 62.4889 84.7248 62.2663 83.7139C62.704 83.37 63.1928 83.0963 63.7149 82.9027C64.1157 82.7255 64.5551 82.6531 64.9917 82.6924C66.4306 82.8842 67.2712 84.7979 67.4528 86.6182C67.8149 90.0734 66.7681 93.4871 65.7513 96.7795C63.877 102.857 62.291 108.788 63.2505 114.509L63.722 114.411C62.7835 108.806 64.3502 102.937 66.205 96.9185C67.2263 93.5742 68.2934 90.1138 67.9259 86.5646ZM54.1711 93.2601C54.4813 93.8698 54.6068 94.5565 54.5324 95.2362C54.5009 95.419 54.4336 95.5938 54.3342 95.7506C54.2349 95.9073 54.1055 96.0429 53.9535 96.1495C53.8846 96.1977 53.8058 96.2298 53.7228 96.2435C53.6399 96.2572 53.5549 96.2521 53.4741 96.2287C53.1516 96.1407 52.9093 95.7509 52.7031 95.3568C51.6053 93.2739 50.8773 91.0169 50.5514 88.6859C52.1581 89.8473 53.4111 91.4307 54.1711 93.2601ZM62.2733 86.8303C62.5703 89.6405 62.2346 91.6271 61.2547 92.9135C61.1129 93.1332 60.9068 93.304 60.6644 93.4027C60.5862 93.4241 60.5045 93.4289 60.4244 93.417C60.3443 93.405 60.2675 93.3765 60.1991 93.3331C59.7423 92.9481 59.4444 92.4077 59.3629 91.8163C59.1089 90.4187 59.2032 88.9802 59.6373 87.6275C60.0714 86.2749 60.832 85.0496 61.8522 84.0597C62.0416 84.9751 62.1822 85.8999 62.2733 86.8303Z" fill="#FFE8EF"/>
<path id="Vector_11" d="M58.3876 64.6325C56.8812 63.5931 55.2344 62.7704 53.4962 62.1888C53.2123 62.0956 52.9507 61.9455 52.7277 61.7476C52.5047 61.5498 52.3251 61.3085 52.2 61.0387C52.0749 60.769 52.007 60.4766 52.0005 60.1797C51.994 59.8827 52.0491 59.5877 52.1623 59.3128C52.5138 58.4543 52.9624 57.6382 53.4994 56.8803C53.7477 56.5388 54.0926 56.2783 54.4903 56.1321C54.888 55.9858 55.3205 55.9604 55.7328 56.059C58.0341 56.5819 60.2043 57.5642 62.1115 58.9463C62.5482 59.2643 62.8497 59.7328 62.957 60.26C63.0642 60.7872 62.9694 61.3352 62.6913 61.7966C62.2875 62.4639 61.8838 63.16 61.5092 63.8594C61.3667 64.1254 61.1696 64.3587 60.9306 64.5442C60.6916 64.7297 60.416 64.8632 60.1217 64.9361C59.8273 65.009 59.5209 65.0197 59.2222 64.9674C58.9234 64.9151 58.6391 64.801 58.3876 64.6325Z" fill="#FFE8EF"/>
<path id="Vector_12" d="M48.9288 146.795C49.0673 147.472 49.0027 148.175 48.7431 148.815C48.4835 149.455 48.0405 150.004 47.4698 150.393C46.8992 150.781 46.2264 150.993 45.536 151C44.8457 151.007 44.1686 150.81 43.5901 150.433C43.0116 150.056 42.5574 149.516 42.2847 148.881C42.0119 148.247 41.9329 147.546 42.0574 146.866C42.182 146.187 42.5046 145.559 42.9846 145.063C43.4647 144.566 44.0807 144.223 44.7553 144.076C45.6691 143.883 46.6222 144.061 47.4049 144.571C48.1876 145.081 48.7357 145.881 48.9288 146.795Z" fill="#C0CFE6"/>
<path id="Vector_13" d="M59.929 143.796C60.0673 144.473 60.0026 145.176 59.7428 145.816C59.4831 146.456 59.04 147.004 58.4693 147.393C57.8986 147.782 57.2258 147.993 56.5354 148C55.8451 148.007 55.1681 147.809 54.5897 147.432C54.0112 147.055 53.5571 146.516 53.2845 145.881C53.0119 145.246 52.9329 144.545 53.0575 143.866C53.1821 143.186 53.5047 142.559 53.9848 142.063C54.4649 141.566 55.0809 141.223 55.7555 141.076C56.208 140.98 56.675 140.975 57.1297 141.06C57.5844 141.145 58.0179 141.318 58.4055 141.571C58.7931 141.824 59.1271 142.15 59.3885 142.532C59.6499 142.914 59.8336 143.343 59.929 143.796Z" fill="#C0CFE6"/>
<path id="Vector_14" d="M72.929 141.397C73.0674 141.977 73.0026 142.579 72.7429 143.128C72.4831 143.676 72.04 144.147 71.4692 144.48C70.8985 144.813 70.2256 144.994 69.5352 145C68.8449 145.006 68.1679 144.837 67.5894 144.513C67.011 144.19 66.5569 143.727 66.2843 143.183C66.0117 142.639 65.9329 142.038 66.0576 141.456C66.1823 140.874 66.5051 140.336 66.9853 139.911C67.4655 139.485 68.0817 139.191 68.7563 139.065C69.2088 138.983 69.6757 138.978 70.1303 139.051C70.585 139.124 71.0184 139.273 71.406 139.489C71.7935 139.706 72.1274 139.986 72.3888 140.313C72.6501 140.64 72.8337 141.009 72.929 141.397Z" fill="#C0CFE6"/>
<path id="Vector_15" d="M84.9287 138.194C85.0674 138.967 85.0029 139.77 84.7434 140.502C84.4838 141.234 84.0409 141.861 83.4702 142.306C82.8995 142.75 82.2266 142.992 81.5362 143C80.8458 143.008 80.1687 142.782 79.5901 142.352C79.0115 141.921 78.5573 141.304 78.2846 140.578C78.0119 139.853 77.9329 139.052 78.0575 138.275C78.1822 137.499 78.5049 136.781 78.9851 136.214C79.4653 135.647 80.0815 135.255 80.7561 135.087C81.6697 134.866 82.6225 135.07 83.4049 135.652C84.1873 136.235 84.7354 137.149 84.9287 138.194Z" fill="#C0CFE6"/>
<path id="Vector_16" d="M97.9288 135.795C98.0674 136.472 98.0027 137.175 97.7431 137.815C97.4834 138.455 97.0404 139.004 96.4697 139.393C95.8989 139.782 95.226 139.993 94.5357 140C93.8453 140.007 93.1682 139.809 92.5897 139.432C92.0112 139.055 91.557 138.515 91.2844 137.881C91.0118 137.246 90.9329 136.545 91.0576 135.865C91.1823 135.186 91.505 134.559 91.9852 134.062C92.4655 133.566 93.0817 133.223 93.7563 133.076C94.2087 132.98 94.6756 132.975 95.1301 133.06C95.5847 133.145 96.018 133.319 96.4055 133.571C96.793 133.824 97.1269 134.15 97.3883 134.532C97.6497 134.913 97.8333 135.343 97.9288 135.795Z" fill="#C0CFE6"/>
</g>
<g id="Group 25">
<path id="Vector_17" d="M156.188 170.792L155.859 170.653L155.707 170.841C155.214 171.456 154.51 171.867 153.731 171.991C152.953 172.116 152.156 171.946 151.496 171.515L148.646 169.643C148.117 169.298 147.703 168.801 147.459 168.218C147.215 167.635 147.152 166.992 147.277 166.372C147.297 166.256 147.324 166.141 147.36 166.029L147.663 165.099C147.135 164.652 146.769 164.042 146.625 163.364C146.582 163.165 146.559 162.963 146.557 162.759C146.544 162.197 146.68 161.641 146.952 161.148L147.63 159.936L147.875 159.499L148.371 158.617L148.615 158.165L149.245 157.046L149.497 156.601L151.365 153.252L165.581 159.645L163.38 163.652L163.135 164.091L162.276 165.661L162.031 166.098L161.081 167.819L160.843 168.264L160.243 169.354L160.214 169.397C160.139 169.532 160.055 169.661 159.963 169.785C159.536 170.349 158.932 170.755 158.248 170.938C157.564 171.12 156.839 171.069 156.188 170.792Z" fill="#FFE8EF"/>
<path id="Vector_18" d="M147.66 165.098L155.705 170.841L147.143 166.302L147.66 165.098Z" fill="#1E1D38"/>
<path id="Vector_19" d="M163.126 164.087L149.24 157.041L149.491 156.596L163.371 163.649L163.126 164.087Z" fill="#1E1D38"/>
<path id="Vector_20" d="M162.023 166.094L148.366 158.612L148.61 158.16L162.267 165.657L162.023 166.094Z" fill="#1E1D38"/>
<path id="Vector_21" d="M160.834 168.26L147.625 159.931L147.87 159.494L161.072 167.815L160.834 168.26Z" fill="#1E1D38"/>
<path id="Vector_22" d="M159.954 169.781L146.621 163.369C146.578 163.17 146.555 162.967 146.553 162.764L160.236 169.356L160.208 169.399C160.131 169.531 160.047 169.659 159.954 169.781Z" fill="#1E1D38"/>
<path id="Vector_23" d="M199.548 138.971C197.298 141.837 194.499 144.225 191.314 145.995C190.821 146.273 190.321 146.525 189.82 146.766C189.018 147.15 188.202 147.495 187.374 147.801C186.249 148.221 185.096 148.563 183.923 148.824C180.036 149.734 176.543 151.87 173.961 154.916L168.341 161.378C167.799 162.003 167.092 162.464 166.301 162.708C165.51 162.952 164.667 162.969 163.867 162.758C163.843 162.754 163.821 162.744 163.801 162.73C163.649 162.694 163.5 162.646 163.356 162.587C163.148 162.504 162.947 162.403 162.755 162.288L158.04 159.511L157.567 159.23L155.673 158.116L155.2 157.834L151.161 155.449C150.913 155.3 150.681 155.128 150.467 154.934C150.461 154.933 150.455 154.931 150.449 154.928C150.444 154.925 150.439 154.92 150.436 154.915C150.436 154.915 150.425 154.912 150.418 154.886C150.274 154.763 150.142 154.627 150.023 154.479C149.803 154.234 149.618 153.959 149.473 153.663C149.419 153.563 149.373 153.46 149.334 153.353C149.262 153.191 149.201 153.024 149.153 152.854C149.097 152.638 149.054 152.418 149.023 152.197C149.004 152.079 148.992 151.96 148.988 151.84C148.993 151.817 148.985 151.804 148.99 151.781C148.979 151.59 148.985 151.399 149.007 151.209C149.021 151.009 149.052 150.812 149.101 150.618C149.142 150.443 149.196 150.272 149.26 150.104L151.883 143.021C153.381 139.069 153.516 134.73 152.267 130.692C151.721 128.955 151.349 127.168 151.156 125.357C151.122 125.096 151.102 124.828 151.08 124.57C151.039 123.996 151.01 123.412 151.007 122.823C150.859 118.425 151.776 114.056 153.68 110.088C155.584 106.121 158.42 102.673 161.944 100.038C165.469 97.4034 169.578 95.6604 173.922 94.9577C178.265 94.255 182.714 94.6133 186.889 96.0023C191.063 97.3912 194.84 99.7694 197.897 102.934C200.954 106.099 203.2 109.956 204.444 114.178C205.688 118.399 205.893 122.858 205.042 127.176C204.19 131.494 202.307 135.542 199.554 138.974L199.548 138.971Z" fill="#EACBD1"/>
<path id="Vector_24" d="M187.373 147.797C186.248 148.217 185.094 148.559 183.921 148.819C180.033 149.73 176.541 151.866 173.959 154.913L168.34 161.373C167.663 162.156 166.733 162.675 165.712 162.841C164.691 163.007 163.644 162.809 162.754 162.281L158.039 159.505L157.566 159.224L155.672 158.109L155.199 157.827L151.16 155.442C150.266 154.916 149.586 154.092 149.239 153.115C148.891 152.138 148.898 151.07 149.258 150.097L151.88 143.014C153.379 139.062 153.514 134.723 152.265 130.686C151.719 128.948 151.347 127.161 151.154 125.35C152.508 127.239 154.042 128.991 155.737 130.581C159.442 133.935 163.515 136.858 167.879 139.293C173.969 142.985 180.525 145.845 187.373 147.797Z" fill="#FFE8EF"/>
<path id="Vector_25" d="M194.348 119.437C193.837 117.205 193.014 115.056 191.902 113.054C191.719 112.729 191.604 112.369 191.565 111.998C191.527 111.626 191.565 111.251 191.678 110.895C191.791 110.539 191.976 110.21 192.222 109.929C192.468 109.648 192.769 109.42 193.107 109.26C194.157 108.761 195.261 108.381 196.397 108.13C196.915 108.022 197.454 108.07 197.944 108.268C198.435 108.466 198.856 108.806 199.153 109.244C200.831 111.664 202 114.4 202.591 117.286C202.725 117.949 202.606 118.638 202.259 119.218C201.912 119.798 201.361 120.227 200.714 120.422C199.772 120.7 198.814 121.013 197.878 121.342C197.522 121.469 197.143 121.519 196.766 121.491C196.389 121.462 196.022 121.354 195.689 121.175C195.357 120.995 195.065 120.748 194.834 120.448C194.603 120.149 194.438 119.804 194.348 119.437Z" fill="#FFE8EF"/>
<path id="Vector_26" d="M191.314 145.995C190.821 146.273 190.321 146.525 189.82 146.766C183.945 144.934 178.256 142.552 172.827 139.653C163.686 134.904 156.639 130.032 151.076 124.567C151.034 123.993 151.005 123.409 151.003 122.82C156.599 128.581 163.822 133.663 173.36 138.617C179.08 141.676 185.095 144.148 191.314 145.995Z" fill="#FFE8EF"/>
</g>
<g id="Group 26">
<path id="Vector_27" d="M133.574 28L110 39.9562H119.174L137.874 29.4888L133.574 28Z" fill="#4A5C43"/>
<path id="Vector_28" d="M179.419 36.798V77.5644H113.26V38.9856L133.907 28.3306L155.341 36.6839L155.6 36.798H179.419Z" fill="#D4E0EE"/>
<path id="Vector_29" d="M179.419 36.7981V77.5645H155.341V36.6841L155.6 36.7981H179.419Z" fill="#97AF8F"/>
<path id="Vector_30" d="M155.34 37.9044L182.068 37.5955L168.175 29.3893L133.442 28.0332L155.34 37.9044Z" fill="#4A5C43"/>
<path id="Vector_31" d="M122.393 47.5225H118.953V57.5814H122.393V47.5225Z" fill="#4A5C43"/>
<path id="Vector_32" d="M147.005 47.5225H143.565V57.5814H147.005V47.5225Z" fill="#4A5C43"/>
<path id="Vector_33" d="M137.61 77.6331H128.679V65.3575C128.679 64.1732 129.15 63.0376 129.987 62.2002C130.824 61.3629 131.96 60.8924 133.144 60.8921C134.328 60.8921 135.464 61.3628 136.302 62.2006C137.139 63.0384 137.61 64.1747 137.61 65.3596V77.6331Z" fill="#4A5C43"/>
<path id="Vector_34" d="M165.265 47.5225H161.825V57.5814H165.265V47.5225Z" fill="#FFE8EF"/>
<path id="Vector_35" d="M175.849 47.5225H172.409V57.5814H175.849V47.5225Z" fill="#FFE8EF"/>
</g>
</g>
</g>
</g>
<defs>
<clipPath id="clip0_207_1929">
<rect width="228" height="204" fill="white"/>
</clipPath>
</defs>
</svg>
